<svg width="260" height="229" viewBox="0 0 260 229" fill="none" xmlns="http://www.w3.org/2000/svg">
<g clip-path="url(#clip0_6_6)">
<path d="M166.975 206.775L166.337 197.908C162.158 195.821 157.533 194.784 152.862 194.889C159.433 199.964 158.907 210.109 163.458 217.052C164.894 219.206 166.796 221.01 169.025 222.33C171.253 223.649 173.75 224.451 176.331 224.675L181.8 227.819C182.425 223.688 182.147 219.469 180.984 215.455C179.821 211.441 177.802 207.727 175.064 204.568C173.51 202.811 171.742 201.257 169.8 199.942C168.604 203.371 166.975 206.775 166.975 206.775Z" fill="#F2F2F2"/>
<path d="M134.4 229H259.599C259.705 229 259.807 228.958 259.883 228.883C259.958 228.807 260 228.706 260 228.599C260 228.493 259.958 228.391 259.883 228.316C259.807 228.241 259.705 228.198 259.599 228.198H134.4C134.294 228.198 134.192 228.241 134.116 228.316C134.041 228.391 133.999 228.493 133.999 228.599C133.999 228.706 134.041 228.807 134.116 228.883C134.192 228.958 134.294 229 134.4 229Z" fill="#CCCCCC"/>
<path d="M54.6874 133.317V133.489H54.807C54.7637 133.434 54.7237 133.377 54.6874 133.317ZM55.6082 60.5743C47.2511 71.4352 42.7274 84.7555 42.7433 98.4559C42.7451 100.542 42.8474 102.599 43.0501 104.627C43.0814 104.975 43.1177 105.323 43.1647 105.666C44.3258 115.749 47.9507 125.391 53.7198 133.743C53.9433 134.071 54.1722 134.393 54.4013 134.716C56.8849 138.195 59.7202 141.41 62.8624 144.309C88.1583 167.651 127.6 166.081 150.958 140.803C151.317 140.424 151.661 140.039 151.999 139.654C161.559 128.834 167.06 115.03 167.558 100.604C168.056 86.1779 163.521 72.0274 154.73 60.5744C154.464 60.226 154.194 59.8778 153.913 59.5347C153.298 58.7601 152.659 58.0011 151.999 57.2577C151.661 56.873 151.317 56.4883 150.958 56.1088C145.126 49.7879 138.046 44.7441 130.165 41.2956C122.284 37.8472 113.773 36.0692 105.169 36.0737C104.571 36.0737 103.978 36.0841 103.385 36.0997C102.989 36.1101 102.594 36.1257 102.199 36.1465C93.343 36.5666 84.6791 38.8702 76.7855 42.9034C68.892 46.9366 61.9505 52.6066 56.4248 59.5346C56.1439 59.8777 55.8736 60.226 55.6082 60.5743ZM54.807 133.489C54.7637 133.434 54.7237 133.377 54.6874 133.317V133.489H54.807Z" fill="white"/>
<path d="M54.2505 132.678L54.4273 132.319L67.6719 105.666V105.661L68.1871 104.627V104.621L90.0671 60.5745V60.5693L90.5822 59.5348L90.5873 59.5296L101.668 37.2123L102.199 36.1466C102.594 36.1259 102.989 36.1103 103.385 36.0999L102.859 37.1604L91.7476 59.5296V59.5348L91.2325 60.5693V60.5745L68.7799 105.77L68.7749 105.776L55.5302 132.449L55.01 133.489L54.9266 133.66L54.4013 134.716C54.1722 134.393 53.9434 134.071 53.7198 133.744L54.2505 132.678Z" fill="#3F3D56"/>
<path d="M68.5564 104.627V105.666H43.1647C43.1177 105.323 43.0814 104.975 43.0501 104.627H68.5564Z" fill="#3F3D56"/>
<path d="M108.016 112.737V111.697H133.408C133.455 112.04 133.492 112.389 133.523 112.737H108.016Z" fill="#3F3D56"/>
<path d="M129.255 109.115H130.295V134.488C129.952 134.535 129.603 134.572 129.255 134.603V109.115Z" fill="#3F3D56"/>
<path d="M154.73 60.5744C154.464 60.2261 154.194 59.8778 153.913 59.5347H151.999V57.2577C151.661 56.8731 151.317 56.4884 150.958 56.1089V59.5347H56.4248C56.1439 59.8778 55.8736 60.2261 55.6082 60.5744H150.958V140.803C151.317 140.424 151.661 140.039 151.999 139.654V60.5744H154.73Z" fill="#3F3D56"/>
<path d="M151.478 132.448H54.6861V133.488H151.478V132.448Z" fill="#3F3D56"/>
<path d="M54.6874 133.317V133.489H54.807C54.7637 133.434 54.7237 133.377 54.6874 133.317ZM55.6082 60.5743C47.2511 71.4352 42.7274 84.7555 42.7433 98.4559C42.7451 100.542 42.8474 102.599 43.0501 104.627C43.0814 104.975 43.1177 105.323 43.1647 105.666C44.3258 115.749 47.9507 125.391 53.7198 133.743C53.9433 134.071 54.1722 134.393 54.4013 134.716C56.8849 138.195 59.7202 141.41 62.8624 144.309C88.1583 167.651 127.6 166.081 150.958 140.803C151.317 140.424 151.661 140.039 151.999 139.654C161.559 128.834 167.06 115.03 167.558 100.604C168.056 86.1779 163.521 72.0274 154.73 60.5744C154.464 60.226 154.194 59.8778 153.913 59.5347C153.298 58.7601 152.659 58.0011 151.999 57.2577C151.661 56.873 151.317 56.4883 150.958 56.1088C145.126 49.7879 138.046 44.7441 130.165 41.2956C122.284 37.8472 113.773 36.0692 105.169 36.0737C104.571 36.0737 103.978 36.0841 103.385 36.0997C102.989 36.1101 102.594 36.1257 102.199 36.1465C93.343 36.5666 84.6791 38.8702 76.7855 42.9034C68.892 46.9366 61.9505 52.6066 56.4248 59.5346C56.1439 59.8777 55.8736 60.226 55.6082 60.5743ZM44.2102 105.666C44.1634 105.323 44.1271 104.975 44.0905 104.627C42.5048 88.8372 47.1029 73.0479 56.9191 60.5743C57.1947 60.226 57.4706 59.8777 57.7566 59.5346C63.133 52.9813 69.8114 47.6139 77.3697 43.7716C84.928 39.9294 93.2018 37.6958 101.668 37.2122C102.063 37.1914 102.459 37.1706 102.859 37.1602C103.624 37.129 104.394 37.1134 105.169 37.1134C113.82 37.1083 122.374 38.9357 130.267 42.4752C138.159 46.0147 145.211 51.1858 150.958 57.6476C151.317 58.0427 151.666 58.4377 151.999 58.8432C152.202 59.072 152.394 59.3007 152.581 59.5346C152.867 59.8777 153.143 60.226 153.419 60.5743C162.166 71.6718 166.803 85.4506 166.544 99.5746C166.285 113.699 161.146 127.299 151.999 138.069C151.666 138.474 151.317 138.869 150.958 139.264C147.791 142.82 144.219 145.996 140.316 148.725C112.574 168.129 74.3433 161.384 54.9266 133.66C54.885 133.603 54.8434 133.546 54.807 133.489C54.7637 133.434 54.7237 133.377 54.6874 133.317C54.5366 133.104 54.3909 132.891 54.2504 132.678C48.786 124.608 45.3426 115.344 44.2102 105.666ZM54.807 133.489C54.7637 133.434 54.7237 133.377 54.6874 133.317V133.489H54.807Z" fill="#CCCCCC"/>
<path d="M177.065 165.459H114.784C114.023 165.458 113.293 165.155 112.754 164.617C112.216 164.079 111.913 163.35 111.912 162.589V132.263C111.913 131.502 112.216 130.773 112.754 130.234C113.293 129.696 114.023 129.394 114.784 129.393H177.065C177.827 129.394 178.557 129.696 179.095 130.234C179.634 130.773 179.937 131.502 179.938 132.263V162.589C179.937 163.35 179.634 164.079 179.095 164.617C178.557 165.155 177.827 165.458 177.065 165.459Z" fill="#CACACA"/>
<path d="M149.632 163.019C135.992 163.019 121.769 162.889 116.462 162.804C115.764 162.79 115.099 162.503 114.61 162.006C114.12 161.508 113.845 160.839 113.842 160.141V132.265C113.842 132.015 113.941 131.776 114.118 131.599C114.295 131.422 114.534 131.322 114.784 131.321H177.063C177.313 131.322 177.553 131.421 177.73 131.597C177.907 131.774 178.007 132.013 178.008 132.263V151.176C177.996 154.263 176.774 157.223 174.604 159.42C172.434 161.618 169.488 162.877 166.399 162.929C161.453 162.994 155.597 163.019 149.632 163.019Z" fill="#E4E4E4"/>
<path d="M170.635 148.748H119.96C119.632 148.747 119.311 148.645 119.043 148.456C118.774 148.267 118.571 148 118.46 147.69L112.724 131.61C112.639 131.37 112.612 131.113 112.647 130.861C112.681 130.609 112.776 130.368 112.922 130.16C113.069 129.951 113.264 129.781 113.49 129.664C113.716 129.546 113.968 129.485 114.222 129.484L177.567 129.396H177.569C177.833 129.396 178.092 129.461 178.325 129.586C178.557 129.711 178.754 129.892 178.899 130.112C179.044 130.331 179.132 130.584 179.156 130.846C179.179 131.109 179.137 131.373 179.033 131.615L172.099 147.783C171.977 148.069 171.773 148.314 171.512 148.485C171.252 148.657 170.947 148.748 170.635 148.748Z" fill="#CACACA"/>
<path d="M134.648 159.892H117.174C116.744 159.892 116.331 159.72 116.027 159.416C115.723 159.112 115.553 158.7 115.553 158.27C115.553 157.84 115.723 157.428 116.027 157.124C116.331 156.82 116.744 156.648 117.174 156.648H134.648C135.078 156.648 135.491 156.82 135.795 157.124C136.098 157.428 136.269 157.84 136.269 158.27C136.269 158.7 136.098 159.112 135.795 159.416C135.491 159.72 135.078 159.892 134.648 159.892Z" fill="#CACACA"/>
<path d="M145.83 152.713C148.022 152.713 149.799 150.938 149.799 148.748C149.799 146.558 148.022 144.782 145.83 144.782C143.639 144.782 141.862 146.558 141.862 148.748C141.862 150.938 143.639 152.713 145.83 152.713Z" fill="#3F3D56"/>
<path d="M20.0593 8.1996C29.8095 1.33796 41.888 -1.3721 53.6377 0.6656C65.3875 2.7033 75.8459 9.32185 82.7124 19.0652C97.011 39.3548 111.359 92.5591 101.231 123.381C71.0214 91.4937 24.6111 88.1803 9.18602 70.8089C-7.29625 52.247 -0.24447 22.4882 20.0593 8.1996Z" fill="#696C72"/>
<path d="M46.5608 54.1439C54.6598 54.1439 61.2253 47.583 61.2253 39.4897C61.2253 31.3964 54.6598 24.8354 46.5608 24.8354C38.4619 24.8354 31.8964 31.3964 31.8964 39.4897C31.8964 47.583 38.4619 54.1439 46.5608 54.1439Z" fill="white"/>
<path d="M113.627 139.34C118.932 139.34 123.232 135.043 123.232 129.742C123.232 124.441 118.932 120.144 113.627 120.144C108.323 120.144 104.022 124.441 104.022 129.742C104.022 135.043 108.323 139.34 113.627 139.34Z" fill="#3F3D56"/>
<path opacity="0.2" d="M30.8716 36.1084C29.9006 37.7702 29.2667 39.6069 29.006 41.5136C28.7453 43.4203 28.863 45.3596 29.3523 47.2208C29.8416 49.082 30.693 50.8287 31.8579 52.3611C33.0227 53.8935 34.4782 55.1817 36.1412 56.152C37.8042 57.1223 39.6421 57.7558 41.5501 58.0163C43.4581 58.2768 45.3988 58.1592 47.2613 57.6702C49.1238 57.1812 50.8717 56.3304 52.4052 55.1664C53.9387 54.0024 55.2278 52.5479 56.1988 50.8861C53.5812 53.1808 50.2319 54.4697 46.7503 54.5221C43.2687 54.5746 39.8821 53.3871 37.1966 51.1723C34.511 48.9575 32.7019 45.8599 32.093 42.434C31.4841 39.008 32.1151 35.4774 33.8732 32.4739C32.683 33.5156 31.6694 34.743 30.8716 36.1084Z" fill="#231F20"/>
<path opacity="0.2" d="M9.15843 70.878C24.5835 88.2494 70.9939 91.5628 101.203 123.45C102.146 120.534 102.872 117.552 103.374 114.528C73.1802 85.5403 29.3536 81.8768 14.4501 65.093C1.11129 50.0711 3.18769 27.7171 15.2259 12.1631C-1.2843 27.4567 -5.946 53.8678 9.15843 70.878Z" fill="#231F20"/>
<path d="M200.89 132.254L194.663 130.358C191.952 133.625 189.704 143.086 189.704 143.086L181.181 156.926C180.725 157.143 180.334 157.476 180.047 157.891C179.761 158.306 179.589 158.79 179.549 159.293C179.509 159.796 179.602 160.3 179.819 160.756C180.036 161.211 180.369 161.602 180.785 161.888C181.201 162.174 181.685 162.345 182.189 162.384C182.692 162.424 183.197 162.33 183.652 162.113C184.108 161.895 184.498 161.562 184.784 161.146C185.07 160.73 185.24 160.246 185.279 159.743L198.179 144.093L200.89 132.254Z" fill="#FFB6B6"/>
<path d="M200.771 133.764L201.922 124.344L199.342 120.039C198.833 119.195 198.097 118.511 197.219 118.063C196.341 117.616 195.355 117.423 194.373 117.506C193.042 117.627 191.807 118.249 190.917 119.246C190.028 120.242 189.55 121.539 189.581 122.874C189.678 126.923 190.316 132.043 192.807 133.443L192.832 133.457L200.771 133.764Z" fill="#0075C1"/>
<path d="M218.364 218.888L214.63 220.689L205.899 207.152L211.411 204.494L218.364 218.888Z" fill="#FFB6B6"/>
<path d="M220.376 222.718L208.892 228.257L208.822 228.112C208.25 226.928 208.172 225.564 208.606 224.322C209.039 223.08 209.949 222.061 211.134 221.489L212.464 218.887L217.146 218.59L218.148 218.106L220.376 222.718Z" fill="#2F2E41"/>
<path d="M190.566 223.934L186.419 223.934L184.447 207.95L190.567 207.951L190.566 223.934Z" fill="#FFB6B6"/>
<path d="M190.712 228.257L177.96 228.257V228.096C177.96 226.78 178.483 225.519 179.414 224.589C180.345 223.659 181.607 223.136 182.924 223.136H182.924L185.253 221.37L189.599 223.136L190.712 223.136L190.712 228.257Z" fill="#2F2E41"/>
<path d="M186.456 149.805L181.704 182.55L182.998 186.859L181.301 189.911L183.793 212.878L182.781 215.104L185.607 216.846H191.359L191.664 192.584L193.084 189.022V187.059L195.976 172.264L196.643 195.295L197.567 197.075C201.006 204.872 205.639 207.425 208.914 213.254L214.665 210.141L214.545 207.819C215.7 207.234 212.81 205.526 212.532 204.262L212.029 201.999L208.674 195.054L208.546 192.608L209.464 175.974L209.032 153.575L201.488 147.81L186.456 149.805Z" fill="#2F2E41"/>
<path d="M193.923 110.087C198.049 110.087 201.395 106.744 201.395 102.62C201.395 98.4963 198.049 95.1533 193.923 95.1533C189.796 95.1533 186.451 98.4963 186.451 102.62C186.451 106.744 189.796 110.087 193.923 110.087Z" fill="#FFB6B6"/>
<path d="M182.883 163.931L182.773 163.893L184.22 159.196C184.03 158.591 183.994 157.948 184.114 157.325C184.235 156.703 184.508 156.12 184.91 155.629C184.676 155.224 183.712 153.314 185.282 151.691C185.188 151.217 184.716 148.416 186.364 147.047C186.364 147.047 189.562 122.828 191.355 116.431C191.407 115.963 190.987 112.142 193.4 111.992C194.672 111.913 196.581 111.792 199.446 111.608C199.816 111.581 200.033 112.206 200.362 113.222C200.584 113.91 199.44 114.85 199.717 114.835L199.736 114.833L199.755 114.838C202.428 115.554 204.773 117.168 206.395 119.409C208.017 121.649 208.818 124.379 208.663 127.14L207.811 141.611C207.94 142.193 210.653 158.695 209.944 160.467C209.541 161.471 210.227 162.097 210.728 162.554C210.986 162.79 211.173 162.96 211.147 163.146C211.136 163.197 211.113 163.245 211.079 163.285C211.045 163.324 211.002 163.355 210.953 163.374C210.5 163.6 210.751 165.153 211.015 166.078L211.042 166.173L210.954 166.218C210.853 166.269 202.745 162.553 192.895 162.553C189.182 162.553 187.036 165.379 182.883 163.931Z" fill="#696C72"/>
<path d="M199.844 107.211C199.766 107.171 199.698 107.115 199.643 107.047C199.589 106.979 199.549 106.9 199.527 106.816L199.42 106.383L199.748 106.723C199.923 106.579 200.057 106.39 200.136 106.177C200.215 105.964 200.236 105.734 200.198 105.51C200.159 105.286 200.063 105.076 199.917 104.901C199.772 104.726 199.583 104.593 199.369 104.515C199.225 104.467 199.077 104.431 198.927 104.407C198.77 104.382 198.615 104.345 198.464 104.296C198.111 104.143 197.806 103.896 197.583 103.583C197.359 103.269 197.226 102.901 197.198 102.517C197.149 101.84 197.224 101.16 197.419 100.51C194.122 101.016 190.76 100.915 187.5 100.212C186.997 100.106 186.516 99.9172 186.076 99.6527C185.271 99.1756 184.6 98.5015 184.128 97.694C184.066 97.5851 184.04 97.4591 184.054 97.3344C184.068 97.2097 184.122 97.0929 184.208 97.001C184.267 96.9369 184.339 96.8856 184.419 96.8504C184.499 96.8151 184.586 96.7967 184.673 96.7961L184.554 96.4733C184.517 96.3724 184.507 96.2634 184.525 96.1575C184.544 96.0516 184.59 95.9525 184.66 95.8703C184.729 95.7881 184.819 95.7257 184.92 95.6896C185.022 95.6534 185.131 95.6448 185.237 95.6645L185.66 95.7435L185.619 95.4628C185.604 95.3581 185.616 95.2513 185.655 95.1529C185.694 95.0545 185.757 94.9679 185.84 94.9016C185.922 94.8354 186.02 94.7917 186.125 94.775C186.229 94.7583 186.337 94.7691 186.436 94.8063C186.526 94.8404 186.623 94.8545 186.72 94.8475C186.817 94.8405 186.911 94.8127 186.996 94.7659C187.08 94.7191 187.154 94.6545 187.212 94.5765C187.269 94.4985 187.309 94.4089 187.329 94.3141L187.474 93.6083L187.489 93.5709C188.204 92.3798 189.579 91.514 191.26 91.1954C192.759 90.9115 194.29 91.0548 195.77 91.1935C196.398 91.2062 197.015 91.3619 197.574 91.6487C197.826 91.7944 198.034 92.0075 198.173 92.2643C198.312 92.521 198.376 92.8112 198.36 93.1025C199.818 92.6545 201.382 93.5469 202.155 94.6714C203.075 96.0087 203.223 97.6864 203.25 98.9986C203.314 102.1 202.674 104.638 201.35 106.541C201.16 106.864 200.873 107.119 200.53 107.27C200.442 107.299 200.351 107.314 200.258 107.313C200.114 107.314 199.972 107.279 199.844 107.211Z" fill="#2F2E41"/>
<path d="M200.113 136.61L194.628 133.105C191.136 135.519 186.416 144.023 186.416 144.023L174.471 155.051C173.973 155.136 173.507 155.351 173.119 155.674C172.731 155.996 172.435 156.415 172.26 156.889C172.086 157.362 172.039 157.873 172.125 158.371C172.211 158.868 172.426 159.334 172.75 159.721C173.073 160.109 173.493 160.404 173.967 160.578C174.441 160.752 174.952 160.798 175.45 160.711C175.947 160.625 176.413 160.409 176.801 160.085C177.188 159.761 177.483 159.342 177.656 158.868L194.304 147.278L200.113 136.61Z" fill="#FFB6B6"/>
<path d="M199.59 138.032L203.243 129.271L201.921 124.43C201.659 123.481 201.135 122.624 200.411 121.956C199.686 121.288 198.789 120.836 197.82 120.651C196.506 120.409 195.149 120.674 194.023 121.394C192.897 122.114 192.087 123.234 191.756 124.528C190.756 128.453 189.988 133.555 192.008 135.574L192.029 135.595L199.59 138.032Z" fill="#696C72"/>
</g>
<defs>
<clipPath id="clip0_6_6">
<rect width="260" height="229" fill="white"/>
</clipPath>
</defs>
</svg>
