<svg width="127" height="127" viewBox="0 0 127 127" fill="none" xmlns="http://www.w3.org/2000/svg">
<path d="M62.636 71.1187H74.3607V73.9018H62.4354C62.3146 73.9018 62.1543 73.9284 62.0335 73.9284C60.5482 74.0625 60.1065 74.3039 59.906 75.1602C59.8654 75.2941 59.8654 75.4015 59.8654 75.5087V77.4087C59.8654 77.5429 59.8654 77.6503 59.906 77.7842C60.1067 78.9086 60.9096 79.4161 62.5956 79.4161H67.6548C68.8997 79.4161 70.1839 79.6307 71.2289 80.0328C73.1959 80.7819 74.2005 81.906 74.2005 83.1108V86.162C74.2005 87.6349 73.3167 88.7596 71.5102 89.5885C70.425 90.0973 69.0605 90.391 67.6545 90.391H55.6493V87.6079H67.1738C67.3345 87.6079 67.4544 87.5814 67.6153 87.5814C68.4178 87.5275 69.0203 87.3132 69.3812 86.9912C69.7835 86.6715 69.9837 86.296 69.9837 86.001V83.5657C69.9837 83.2986 69.9033 83.0572 69.663 82.8159C69.2616 82.3344 68.6983 82.0938 67.3737 81.9866C67.2532 81.9599 67.0932 81.9599 66.9325 81.9599H62.5954C62.194 81.9599 61.7929 81.9331 61.3906 81.906C57.8175 81.5317 55.6895 79.9256 55.6895 78.0514V75.6161C55.6895 73.4747 56.7737 72.2429 59.2631 71.4665C60.066 71.2259 60.9496 71.1187 62.636 71.1187ZM95.1426 89.5466L99.2562 93.2591H94.4069L91.0793 90.2553L87.729 90.4679H83.2624C82.4982 90.4679 81.6935 90.3605 80.8085 90.1191C78.1534 89.3951 76.865 88.0005 76.865 85.693V75.7686C76.865 73.2467 78.6363 71.717 82.136 71.2343C82.4982 71.1805 82.9005 71.1539 83.2624 71.1539H91.1897C91.5918 71.1539 91.9539 71.1805 92.3563 71.2343C95.856 71.717 97.6263 73.2467 97.6263 75.7686V85.693C97.6265 87.7384 96.8757 88.8337 95.1426 89.5466ZM93.7243 76.0102C93.7243 75.9028 93.7243 75.7686 93.6841 75.6334C93.4427 74.5609 92.3565 73.9437 90.7474 73.9437H84.4304C82.5788 73.9437 81.373 74.7484 81.373 76.01V85.4514C81.373 85.5856 81.4132 85.7195 81.4524 85.8805C81.6937 87.0347 82.7809 87.6783 84.4304 87.6783H88.2233L84.7388 84.5321H89.5881L92.6279 87.276C93.187 86.9769 93.5561 86.5209 93.6841 85.9341C93.7243 85.8011 93.7243 85.6659 93.7243 85.5317V76.0102ZM27.1068 71.1453C23.9348 70.1551 21.8063 71.0113 20.8431 73.1527L14.4988 87.34L8.3557 73.1527C7.43198 71.0113 5.2638 70.1551 2.09202 71.1453C0.766957 71.5466 0.124268 72.3232 0.124268 73.9284V90.3912H4.29964V73.9016L10.7647 88.2766C11.5275 90.0169 12.5715 90.6326 14.6189 90.6326C16.667 90.6326 17.6706 90.0169 18.4338 88.2766L24.8984 73.9016V90.3912H29.0746V73.9284C29.0743 72.3232 28.4319 71.5466 27.1068 71.1453ZM48.2471 76.926V87.7423C48.1739 87.7423 40.3339 87.7609 39.1668 87.7423C36.8794 87.7071 36.6819 86.548 36.7211 86.0546V76.9692H32.5465C32.6378 77.0599 32.5455 86.1496 32.5485 86.3414C32.581 88.4145 35.2107 90.2159 39.34 90.2548H48.2156V91.3492C48.2161 91.7989 48.5333 93.1349 45.8458 93.4196C45.8128 93.4216 32.6601 93.4196 32.6373 93.4196V96.2295H45.8227C47.914 96.1675 52.4512 95.3772 52.4279 91.7391C52.4274 91.6761 52.4512 76.9255 52.4316 76.9255H48.2471V76.926ZM124.308 87.7423L125.316 89.2857H124.627L123.708 87.7671H123.158V89.2857H122.568V85.7723H123.938C124.808 85.7723 125.259 86.0683 125.259 86.7821C125.259 87.4226 124.849 87.6848 124.308 87.7423ZM123.79 87.2743C124.233 87.2743 124.619 87.2328 124.619 86.742C124.619 86.3317 124.192 86.2655 123.839 86.2655H123.158V87.2743H123.79ZM126.876 87.529C126.876 89.367 125.424 90.6058 123.798 90.6058C122.174 90.6058 120.721 89.367 120.721 87.529C120.721 85.6907 122.174 84.452 123.798 84.452C125.424 84.452 126.876 85.6907 126.876 87.529ZM126.187 87.529C126.187 86.1332 125.12 85.0915 123.798 85.0915C122.461 85.0915 121.41 86.1332 121.41 87.529C121.41 88.9235 122.461 89.9663 123.798 89.9663C125.12 89.9663 126.187 88.9235 126.187 87.529ZM89.8086 38.6911C89.2733 38.6811 88.8945 38.7491 88.4944 38.8369C88.4944 38.8612 88.4944 38.8853 88.4944 38.9096C88.5192 38.9096 88.5428 38.9096 88.5676 38.9096C88.8233 39.4342 89.2743 39.772 89.5898 40.224C89.8324 40.7352 90.0757 41.2457 90.3191 41.7562C90.3439 41.7319 90.3684 41.7078 90.3922 41.6835C90.8449 41.3653 91.0513 40.8558 91.0493 40.0779C90.8678 39.8869 90.8407 39.6483 90.684 39.4208C90.4761 39.1175 90.0718 38.9461 89.8086 38.6911ZM125.135 76.135C125.479 76.3877 125.71 76.7797 126.157 76.9384C126.157 76.9136 126.157 76.889 126.157 76.8652C125.922 76.5671 125.862 76.1556 125.646 75.843C125.331 75.5275 125.013 75.2108 124.697 74.894C123.769 73.6624 122.592 72.5815 121.34 71.683C120.342 70.9659 118.107 69.9985 117.69 68.8369C117.666 68.8121 117.642 68.7876 117.617 68.7628C118.325 68.6834 119.154 68.4274 119.807 68.252C120.904 67.9579 121.885 68.0343 123.018 67.7413C123.53 67.5947 124.04 67.4484 124.551 67.3038C124.551 67.2058 124.551 67.109 124.551 67.0108C123.978 66.423 123.57 65.6451 122.946 65.113C121.311 63.722 119.527 62.3309 117.69 61.172C116.672 60.5286 115.412 60.1112 114.332 59.5659C113.969 59.3829 113.332 59.2874 113.092 58.982C112.525 58.2587 112.216 57.3422 111.778 56.5001C110.863 54.7357 109.962 52.8089 109.15 50.9525C108.597 49.687 108.235 48.4388 107.545 47.303C104.231 41.8542 100.663 38.5651 95.1369 35.3323C93.9602 34.6449 92.5448 34.3736 91.0493 34.0189C90.2469 33.9705 89.443 33.9211 88.6405 33.8728C88.1506 33.6681 87.6412 33.0688 87.181 32.7779C85.3499 31.6215 80.6537 29.1055 79.2983 32.4132C78.4421 34.5006 80.5773 36.5375 81.3415 37.5957C81.878 38.3376 82.5639 39.1698 82.9479 40.004C83.1996 40.5524 83.2425 41.1028 83.4596 41.683C83.9899 43.1127 84.4508 44.668 85.1369 45.9896C85.4844 46.6578 85.8671 47.3625 86.3057 47.9601C86.5748 48.3269 87.0347 48.4884 87.1069 49.055C86.6572 49.6857 86.6314 50.6645 86.3786 51.4635C85.2376 55.0607 85.6679 59.531 87.3276 62.1935C87.8361 63.0103 89.0357 64.7638 90.684 64.0908C92.1258 63.5034 91.8044 61.6828 92.2169 60.0767C92.3096 59.7118 92.2531 59.4442 92.4357 59.2008C92.4357 59.2246 92.4357 59.2492 92.4357 59.2735C92.8742 60.1493 93.3122 61.0252 93.7498 61.9008C94.7226 63.4667 96.4483 65.1043 97.9108 66.2079C98.6681 66.7804 99.2651 67.7706 100.246 68.1057C100.246 68.0809 100.246 68.0563 100.246 68.0315C100.221 68.0315 100.197 68.0315 100.173 68.0315C99.982 67.7366 99.6848 67.6128 99.4437 67.3755C98.8722 66.8151 98.237 66.1191 97.7642 65.4774C96.4337 63.6719 95.2587 61.6954 94.1881 59.6386C93.6764 58.6561 93.2319 57.5724 92.8005 56.573C92.6346 56.1873 92.6366 55.6046 92.2898 55.405C91.8175 56.1372 91.1222 56.73 90.7569 57.5947C90.173 58.9773 90.0978 60.6633 89.8813 62.4118C89.7533 62.4579 89.8101 62.4264 89.7347 62.4845C88.7177 62.2399 88.3607 61.1931 87.9832 60.2952C87.028 58.0251 86.8506 54.3691 87.6913 51.7554C87.9088 51.0795 88.8931 48.9495 88.4937 48.325C88.3037 47.7014 87.6776 47.3414 87.3271 46.865C86.8916 46.2761 86.4585 45.5014 86.1573 44.821C85.3765 43.051 85.0114 41.0639 84.1881 39.2742C83.7942 38.4192 83.1287 37.553 82.582 36.7923C81.9768 35.9499 81.2988 35.3298 80.8303 34.3103C80.6634 33.9484 80.4364 33.3692 80.6839 32.9969C80.7621 32.7456 80.8737 32.641 81.1225 32.5588C81.5464 32.2324 82.7244 32.6675 83.1656 32.8508C84.3354 33.3367 85.3132 33.7998 86.3047 34.4564C86.7802 34.7719 87.2616 35.3826 87.8364 35.5515C88.0561 35.5515 88.2749 35.5515 88.4934 35.5515C89.5218 35.7874 90.673 35.6252 91.6322 35.9167C93.3291 36.4323 94.8496 37.2345 96.2305 38.1067C100.437 40.7625 103.877 44.5442 106.23 49.055C106.609 49.7812 106.773 50.4743 107.106 51.245C107.778 52.7985 108.626 54.3966 109.295 55.9162C109.963 57.4312 110.614 58.961 111.558 60.2225C112.054 60.8853 113.971 61.241 114.843 61.6096C115.454 61.8673 116.454 62.1367 117.032 62.4845C118.138 63.1515 119.207 63.9447 120.244 64.675C120.762 65.0403 122.354 65.8405 122.433 66.4989C119.866 66.4309 117.905 66.6693 116.229 67.3757C115.753 67.5759 114.993 67.5818 114.915 68.1779C115.177 68.4522 115.218 68.863 115.427 69.2001C115.826 69.848 116.501 70.7154 117.105 71.1713C117.764 71.6686 118.443 72.2007 119.148 72.6311C120.405 73.3975 121.808 73.8348 123.017 74.602C123.732 75.055 124.44 75.6242 125.135 76.135ZM104.426 85.5206V71.1185H100.251V85.5471C100.251 88.4106 102.379 90.0169 106.675 90.3384C107.076 90.3642 107.477 90.391 107.88 90.391H118.761V87.6079H107.799C105.35 87.6081 104.426 86.9915 104.426 85.5206Z" fill="white"/>
</svg>
