<svg width="133" height="133" viewBox="0 0 133 133" fill="none" xmlns="http://www.w3.org/2000/svg">
<path fill-rule="evenodd" clip-rule="evenodd" d="M66.5 33.4495C51.7204 33.4495 42.4879 40.7922 38.7916 55.4831C44.3333 48.1404 50.8004 45.3862 58.1875 47.2205C62.4047 48.2679 65.4194 51.3103 68.7499 54.674C74.1863 60.1548 80.4761 66.5 94.2083 66.5C108.988 66.5 118.22 59.1573 121.917 44.4663C116.375 51.809 109.913 54.5632 102.521 52.7289C98.3036 51.6815 95.2889 48.6392 91.9529 45.2754C86.522 39.7891 80.2378 33.4495 66.5 33.4495ZM38.7916 66.5C24.012 66.5 14.7796 73.8427 11.0833 88.5336C16.625 81.1854 23.0921 78.4367 30.4791 80.271C34.6964 81.3184 37.711 84.3608 41.0471 87.7245C46.4779 93.2053 52.7677 99.5505 66.5055 99.5505C81.2851 99.5505 90.5176 92.2078 94.2139 77.5168C88.6722 84.8595 82.2051 87.6137 74.818 85.7794C70.6008 84.732 67.5861 81.6897 64.2556 78.3259C58.8137 72.8452 52.5239 66.5 38.7916 66.5Z" fill="white"/>
</svg>
